<svg width="1010" height="790" viewBox="0 0 1010 790" fill="none" xmlns="http://www.w3.org/2000/svg">
<path opacity="0.1" d="M925.374 347.467C925.374 347.467 887.494 343.247 890.624 370.107C890.624 370.107 889.494 374.767 893.624 377.107C893.624 377.107 893.794 375.107 897.624 375.997C898.976 376.298 900.359 376.435 901.744 376.407C903.615 376.378 905.425 375.735 906.894 374.577V374.577C906.894 374.577 917.804 370.707 922.844 353.467C922.844 353.467 926.104 349.807 926.034 348.827L919.484 351.237C919.484 351.237 921.484 355.977 919.484 359.737C919.484 359.737 919.694 351.417 918.484 351.557C918.234 351.557 915.074 352.987 915.074 352.987C915.074 352.987 918.434 361.237 915.294 366.987C915.294 366.987 916.874 357.117 913.864 353.547L909.214 355.957C909.214 355.957 913.214 364.507 909.874 371.147C909.874 371.147 911.164 360.767 908.234 356.547L903.984 359.547C903.984 359.547 907.704 367.957 904.894 373.457C904.894 373.457 905.184 361.317 903.054 360.297C903.054 360.297 899.324 363.297 898.704 364.537C898.704 364.537 901.244 370.637 899.324 373.687C899.324 373.687 898.654 365.557 897.774 365.477C897.774 365.477 893.934 370.647 893.374 374.297C893.721 370.913 894.948 367.679 896.934 364.917C894.858 365.198 892.91 366.085 891.334 367.467C891.334 367.467 892.074 363.707 897.874 363.667C897.874 363.667 901.034 359.757 901.874 359.557C901.874 359.557 896.144 358.777 892.574 360.147C892.574 360.147 895.824 356.737 902.974 358.727L907.174 355.637C907.174 355.637 899.654 354.217 896.384 355.197C896.384 355.197 900.244 352.197 908.304 354.937L912.834 352.537C912.834 352.537 906.444 350.817 902.574 351.127C902.574 351.127 906.744 349.127 914.154 351.897L917.374 350.637C917.374 350.637 912.684 349.467 911.304 349.257C909.924 349.047 909.874 348.657 909.874 348.657C912.896 348.303 915.957 348.799 918.714 350.087C918.714 350.087 925.474 347.897 925.374 347.467Z" fill="#6C63FF"/>
<path opacity="0.1" d="M983.284 382.847C983.284 382.847 945.404 378.637 948.534 405.487C948.534 405.487 947.414 410.147 951.534 412.487C951.534 412.487 951.704 410.487 955.534 411.387C956.884 411.68 958.263 411.815 959.644 411.787C961.506 411.749 963.305 411.11 964.774 409.967V409.967C964.774 409.967 975.674 406.097 980.714 388.847C980.714 388.847 983.984 385.197 983.904 384.207L977.354 386.617C977.354 386.617 979.354 391.357 977.354 395.117C977.354 395.117 977.564 386.807 976.354 386.937C976.104 386.937 972.944 388.367 972.944 388.367C972.944 388.367 976.304 396.617 973.164 402.367C973.164 402.367 974.744 392.497 971.734 388.937L967.084 391.337C967.084 391.337 971.084 399.887 967.744 406.527C967.744 406.527 969.034 396.147 966.104 391.937L961.854 394.937C961.854 394.937 965.574 403.347 962.774 408.857C962.774 408.857 963.054 396.707 960.924 395.687C960.924 395.687 957.194 398.687 956.574 399.927C956.574 399.927 959.114 406.027 957.194 409.077C957.194 409.077 956.524 400.947 955.644 400.867C955.644 400.867 951.804 406.037 951.254 409.687C951.6 406.304 952.824 403.071 954.804 400.307C952.729 400.593 950.783 401.48 949.204 402.857C949.204 402.857 949.954 399.097 955.754 399.067C955.754 399.067 958.904 395.157 959.754 394.947C959.754 394.947 954.024 394.177 950.454 395.547C950.454 395.547 953.704 392.127 960.854 394.117L965.054 391.027C965.054 391.027 957.534 389.607 954.264 390.587C954.264 390.587 958.124 387.587 966.184 390.337L970.714 387.927C970.714 387.927 964.324 386.207 960.454 386.517C960.454 386.517 964.624 384.517 972.034 387.287L975.254 386.037C975.254 386.037 970.564 384.867 969.194 384.647C967.824 384.427 967.754 384.047 967.754 384.047C970.777 383.7 973.837 384.198 976.594 385.487C976.594 385.487 983.384 383.277 983.284 382.847Z" fill="#6C63FF"/>
<path opacity="0.1" d="M354.134 774.627C451.392 774.627 530.234 759.691 530.234 741.267C530.234 722.842 451.392 707.907 354.134 707.907C256.877 707.907 178.034 722.842 178.034 741.267C178.034 759.691 256.877 774.627 354.134 774.627Z" fill="#6C63FF"/>
<path opacity="0.1" d="M586.554 111.397C521.834 109.157 460.194 88.2566 401.334 65.3966C342.474 42.5366 284.174 17.2166 221.004 5.10663C180.374 -2.68337 133.904 -3.79337 101.174 17.9666C69.6641 38.9666 59.4841 75.1166 54.0141 108.687C49.8941 133.947 47.4741 160.537 58.7541 184.187C66.5941 200.607 80.4941 214.407 90.1141 230.137C123.584 284.857 99.9241 352.337 63.6641 405.767C46.6641 430.827 26.9141 454.767 13.7841 481.417C0.654109 508.067 -5.41589 538.707 6.07411 565.967C17.4541 592.967 44.5841 613.207 73.9741 627.457C133.664 656.407 203.974 664.687 272.584 669.387C424.414 679.767 577.044 675.277 729.274 670.767C785.614 669.107 842.194 667.417 897.614 658.707C928.394 653.867 960.164 646.187 982.514 627.647C1010.87 604.117 1017.9 564.277 998.894 534.777C967.014 485.277 878.894 472.987 856.584 419.877C844.324 390.637 856.914 358.077 874.744 330.967C912.984 272.797 977.074 221.767 980.444 155.287C982.764 109.627 951.954 63.8966 904.314 42.2866C854.384 19.6366 785.134 22.4866 748.314 59.9766C710.364 98.5366 643.704 113.387 586.554 111.397Z" fill="#6C63FF"/>
<path d="M535.124 361.737L504.494 341.087L519.944 318.087L439.044 311.637L409.974 334.117L373.584 313.717L343.234 317.367L342.874 309.367C342.498 301.027 341.661 292.714 340.364 284.467C340.494 281.967 340.584 279.097 340.574 275.977C340.574 262.827 338.794 245.397 330.974 233.777L332.774 217.597L318.174 200.347C320.519 195.676 323.192 191.178 326.174 186.887C326.674 186.167 327.174 185.467 327.714 184.787C346.664 183.417 361.614 167.837 361.614 148.787C361.614 147.907 361.614 147.027 361.514 146.157C361.514 145.807 361.444 145.447 361.404 145.097C363.254 146.097 365.124 147.097 366.994 148.097C367.344 148.597 367.744 149.097 368.184 149.687L368.274 149.797L368.834 150.487L369.014 150.697C369.214 150.937 369.424 151.167 369.634 151.407L369.774 151.567C370.304 152.157 370.864 152.757 371.464 153.347C371.536 153.405 371.602 153.468 371.664 153.537L372.414 154.237L372.624 154.427C373.264 154.997 373.944 155.547 374.624 156.067L374.844 156.227L375.704 156.817L375.984 156.997C376.314 157.197 376.654 157.407 376.984 157.597L377.104 157.667C377.494 157.877 377.894 158.077 378.294 158.267L378.494 158.347C378.834 158.493 379.167 158.633 379.494 158.767L379.804 158.877C380.154 158.997 380.494 159.107 380.854 159.207L381.074 159.267C381.514 159.377 381.954 159.467 382.404 159.537H382.454C382.878 159.605 383.305 159.649 383.734 159.667H384.024C384.407 159.687 384.791 159.687 385.174 159.667H385.424C385.904 159.639 386.381 159.582 386.854 159.497C389.092 159.202 391.24 158.432 393.154 157.237C393.642 156.911 394.074 156.509 394.434 156.047C396.434 153.427 394.234 150.557 394.234 150.557C393.454 148.697 388.394 147.387 388.394 147.387C388.394 147.387 372.394 140.707 372.394 135.387C372.394 130.067 368.394 102.467 327.104 96.1566C327.104 96.1566 300.244 94.6466 292.694 109.027L292.534 110.707C290.314 112.097 288.474 114.887 286.284 115.707C285.338 115.91 284.426 116.247 283.574 116.707V116.517C283.321 116.738 283.114 117.006 282.964 117.307C282.494 118.243 282.212 119.262 282.134 120.307C281.909 121.583 281.466 122.811 280.824 123.937C280.645 124.257 280.445 124.564 280.224 124.857V124.857L280.054 125.127C281.215 125.217 282.381 125.029 283.454 124.577C283.285 125.946 282.949 127.289 282.454 128.577C283.09 128.597 283.718 128.435 284.264 128.109C284.81 127.782 285.251 127.306 285.534 126.737V126.657L285.664 126.477C285.916 126.014 286.123 125.528 286.284 125.027L286.174 125.147C286.374 124.497 286.554 123.837 286.774 123.197C286.875 122.836 287.041 122.497 287.264 122.197C287.531 121.928 287.857 121.725 288.217 121.605C288.577 121.485 288.959 121.452 289.334 121.507L288.924 130.177H289.104C288.863 130.807 288.569 131.416 288.224 131.997C286.804 134.297 284.224 135.867 283.274 138.387C282.865 139.602 282.708 140.888 282.814 142.167C282.814 142.917 282.904 143.677 282.964 144.427V144.367C283.104 146.367 283.144 148.267 282.064 149.877C281.324 150.977 280.134 151.807 279.724 153.057C279.611 153.405 279.56 153.771 279.574 154.137C279.654 155.232 279.883 156.312 280.254 157.347C280.258 157.327 280.258 157.306 280.254 157.287C280.504 158.047 280.562 158.858 280.424 159.647C279.974 161.647 277.544 163.317 277.664 165.227C277.657 165.478 277.695 165.728 277.774 165.967C278.242 166.9 279.051 167.616 280.034 167.967C281.576 168.843 283.347 169.234 285.114 169.087C285.777 168.967 286.417 168.748 287.014 168.437C286.314 170.047 285.594 171.637 284.864 173.147C284.754 173.387 284.634 173.627 284.514 173.867C284.514 173.867 278.334 169.737 274.824 178.157C273.799 179.906 273.067 181.811 272.654 183.797C272.478 184.591 272.231 185.367 271.914 186.117C270.356 188.755 268.024 190.849 265.234 192.117C258.074 195.397 229.154 231.467 228.644 240.807C228.394 244.453 227.777 248.064 226.804 251.587C224.528 259.882 223.943 268.551 225.084 277.077C225.441 279.832 226.034 282.552 226.854 285.207C229.924 294.537 231.974 311.947 231.974 311.947L235.294 342.167C235.171 346.338 235.351 350.512 235.834 354.657C232.444 358.527 218.834 374.657 224.034 379.047C228.034 382.507 235.034 381.937 238.964 381.227C235.654 389.417 230.444 403.657 229.754 413.437C228.754 427.907 231.464 447.077 235.754 454.437C240.044 461.797 254.344 480.677 254.344 480.677C254.344 480.677 253.674 506.577 258.784 515.987C263.894 525.397 265.954 544.917 265.954 544.917C265.954 544.917 270.724 561.397 268.334 567.457C265.944 573.517 272.764 578.557 265.604 582.587C258.444 586.617 249.284 677.447 249.284 677.447C249.284 677.447 245.594 736.977 249.284 740.007C249.482 740.15 249.693 740.274 249.914 740.377V760.377C249.914 760.377 247.354 764.577 257.764 765.427C264.894 765.997 285.104 767.287 297.094 768.037L306.384 768.617C306.384 768.617 328.384 772.997 338.104 768.617C347.824 764.237 365.054 764.337 362.494 752.767C362.155 751.192 361.7 749.645 361.134 748.137C358.324 740.957 353.554 740.137 344.764 738.137C344.254 738.027 343.764 737.927 343.314 737.847C334.054 736.237 331.014 740.547 325.824 734.937C321.314 730.087 306.954 724.657 302.064 722.937C302.184 722.577 302.334 722.227 302.454 721.857C301.069 721.622 299.782 720.993 298.744 720.047L311.994 720.887L319.884 721.377C319.884 721.377 338.584 725.107 346.884 721.377C355.184 717.647 369.784 717.747 367.604 707.917C367.317 706.577 366.933 705.26 366.454 703.977C364.064 697.877 360.004 697.207 352.534 695.517C352.104 695.427 351.704 695.337 351.304 695.267C343.434 693.897 340.854 697.557 336.444 692.797C332.664 688.737 320.734 684.187 316.444 682.637C316.444 680.417 313.444 677.257 311.554 674.087C309.334 670.387 313.434 657.437 313.434 657.437L315.774 603.707C316.665 603.31 317.608 603.04 318.574 602.907C318.574 602.907 329.154 592.807 326.764 582.047C326.277 578.792 326.023 575.507 326.004 572.217C329.484 568.987 334.274 564.217 335.634 561.277C337.854 556.487 335.634 533.277 335.634 533.277V444.527L353.334 446.317L369.394 447.967L374.284 448.467L390.344 450.087L427.254 453.817L460.514 447.517L474.904 444.797L504.494 439.197V366.797L535.124 361.737ZM291.514 121.827L289.454 121.607C290.134 121.637 290.854 121.767 291.514 121.827Z" fill="url(#paint0_linear)"/>
<path d="M463.334 408.747C453.334 423.057 417.384 415.477 417.384 415.477L389.524 389.407L385.774 385.877L392.064 372.517C392.064 372.517 394.064 373.067 397.494 374.047C415.504 379.277 471.774 396.717 463.334 408.747Z" fill="#EFB7B9"/>
<path opacity="0.1" d="M397.474 374.047C396.244 378.327 392.874 384.737 389.524 389.407L385.774 385.877L392.064 372.517C392.064 372.517 394.084 373.067 397.474 374.047Z" fill="black"/>
<path d="M301.924 223.387C301.924 223.387 276.244 234.777 277.504 262.747C278.411 280.766 280.374 298.717 283.384 316.507C283.384 316.507 278.134 358.597 299.994 369.447C321.854 380.297 342.084 389.217 342.084 389.217C342.084 389.217 376.284 392.897 380.534 394.417C384.784 395.937 398.064 372.697 395.614 369.077C393.164 365.457 361.774 357.867 357.774 351.827C353.774 345.787 344.524 342.057 344.524 342.057C344.524 342.057 334.974 336.277 334.324 331.057C333.674 325.837 336.194 321.947 336.834 319.657C337.474 317.367 339.094 295.257 339.094 295.257C339.094 295.257 349.874 216.557 301.924 223.387Z" fill="#DCE6F2"/>
<path opacity="0.1" d="M318.874 315.357C318.874 315.357 283.644 321.257 287.054 333.587C287.054 333.587 299.844 320.277 318.874 315.357Z" fill="black"/>
<path opacity="0.1" d="M319.144 320.347C319.144 320.347 299.774 336.157 303.564 336.967C307.354 337.777 319.144 320.347 319.144 320.347Z" fill="black"/>
<path opacity="0.1" d="M328.454 325.857C328.454 325.857 323.264 336.487 326.454 335.767C329.644 335.047 328.454 325.857 328.454 325.857Z" fill="black"/>
<path opacity="0.1" d="M398.774 375.177L396.634 374.567C397.244 372.567 397.414 370.947 396.914 370.197C394.464 366.577 363.094 358.997 359.104 352.947C355.114 346.897 345.854 343.177 345.854 343.177C345.854 343.177 336.304 337.397 335.654 332.177C335.004 326.957 337.524 323.067 338.164 320.777C338.804 318.487 340.424 296.367 340.424 296.367C340.424 296.367 351.174 217.677 303.224 224.507C303.224 224.507 277.544 235.907 278.794 263.877C279.701 281.897 281.668 299.848 284.684 317.637C284.684 317.637 279.434 359.727 301.294 370.577C323.154 381.427 343.384 390.347 343.384 390.347C343.384 390.347 377.574 394.017 381.834 395.547C383.444 396.127 386.354 393.137 389.204 389.027L390.824 390.537L418.684 416.597C418.684 416.597 454.634 424.187 464.634 409.877C473.084 397.837 416.824 380.397 398.774 375.177Z" fill="black"/>
<path d="M287.144 118.407C286.165 118.598 285.228 118.96 284.374 119.477C283.374 120.307 283.374 121.727 283.124 122.967C282.83 124.692 282.146 126.327 281.124 127.747C282.262 127.83 283.403 127.642 284.454 127.197C284.283 128.565 283.947 129.908 283.454 131.197C284.077 131.212 284.692 131.048 285.224 130.724C285.756 130.399 286.183 129.928 286.454 129.367C286.983 128.24 287.402 127.064 287.704 125.857C287.798 125.495 287.961 125.156 288.184 124.857C289.104 123.767 290.814 124.257 292.234 124.397C293.416 124.496 294.603 124.278 295.672 123.765C296.741 123.251 297.653 122.461 298.314 121.477C299.824 119.187 299.914 113.327 296.314 112.707C292.554 112.087 290.214 117.267 287.144 118.407Z" fill="#965D7B"/>
<g opacity="0.1">
<path opacity="0.1" d="M284.274 120.707C284.364 120.217 284.424 119.707 284.534 119.217C283.584 120.047 283.534 121.457 283.284 122.707C283.158 123.428 282.961 124.135 282.694 124.817C283.482 123.562 284.018 122.166 284.274 120.707V120.707Z" fill="black"/>
<path opacity="0.1" d="M284.594 128.967C285.092 127.68 285.428 126.336 285.594 124.967C284.593 125.388 283.509 125.576 282.424 125.517C282.108 126.22 281.723 126.89 281.274 127.517C282.408 127.604 283.546 127.419 284.594 126.977C284.428 128.346 284.092 129.69 283.594 130.977C284.217 130.991 284.831 130.827 285.363 130.502C285.895 130.178 286.322 129.707 286.594 129.147C286.843 128.692 287.044 128.213 287.194 127.717C286.901 128.127 286.509 128.456 286.054 128.675C285.6 128.893 285.098 128.994 284.594 128.967V128.967Z" fill="black"/>
<path opacity="0.1" d="M293.374 122.167C291.954 122.027 290.234 121.537 289.314 122.627C289.095 122.928 288.933 123.267 288.834 123.627C288.744 123.887 288.664 124.157 288.594 124.427C289.544 123.677 291.084 124.077 292.374 124.207C293.556 124.303 294.741 124.083 295.81 123.57C296.878 123.057 297.791 122.269 298.454 121.287C298.757 120.801 298.983 120.271 299.124 119.717C298.439 120.564 297.557 121.231 296.554 121.658C295.552 122.085 294.46 122.26 293.374 122.167Z" fill="black"/>
</g>
<path d="M317.244 200.997L332.494 219.337L330.504 237.847L312.074 208.997L317.244 200.997Z" fill="#DCE6F2"/>
<path opacity="0.1" d="M332.484 219.337L330.614 236.747L330.494 237.847L313.864 211.807L312.074 208.997L312.594 208.187L317.234 200.997L318.264 202.237L332.484 219.337Z" fill="black"/>
<path d="M340.404 176.167C335.244 177.647 330.314 182.727 326.024 188.897C323.125 193.154 320.531 197.612 318.264 202.237C316.854 205.057 315.614 207.767 314.584 210.127L313.864 211.807C312.124 215.917 311.154 218.667 311.154 218.667C311.154 218.667 271.654 188.967 277.904 186.967C280.004 186.297 282.764 181.797 285.494 176.127L285.834 175.407C287.564 171.767 289.264 167.707 290.774 163.887C293.864 156.037 296.154 149.217 296.154 149.217C296.154 149.217 356.154 171.667 340.404 176.167Z" fill="#EFB7B9"/>
<path d="M364.034 147.547C364.034 147.547 373.154 164.047 385.404 161.797C397.654 159.547 392.614 152.937 392.614 152.937L364.034 147.547Z" fill="#444053"/>
<path d="M346.364 718.697C338.284 722.387 320.014 718.697 320.014 718.697L312.314 718.217C302.314 717.577 285.574 716.497 279.654 716.017C271.014 715.307 273.134 711.767 273.134 711.767V690.377L315.054 679.757C315.054 679.757 331.624 685.427 336.164 690.377C340.474 695.097 342.994 691.467 350.684 692.827C351.064 692.897 351.464 692.977 351.884 693.077C359.184 694.747 363.144 695.407 365.484 701.457C365.954 702.728 366.332 704.031 366.614 705.357C368.774 715.097 354.434 715.027 346.364 718.697Z" fill="#A36468"/>
<path opacity="0.1" d="M365.484 701.457C363.982 702.395 362.403 703.205 360.764 703.877C355.264 706.387 350.034 709.447 344.474 711.817C338.914 714.187 332.924 715.877 326.904 715.427C323.754 715.197 320.534 714.427 317.524 715.327C315.663 716.045 313.909 717.018 312.314 718.217C302.314 717.577 285.574 716.497 279.654 716.017C271.014 715.307 273.134 711.767 273.134 711.767V709.267C273.444 709.267 273.794 709.177 274.194 709.147C276.264 709.114 278.324 709.421 280.294 710.057C284.634 711.237 288.954 712.397 293.294 713.557C293.651 712.21 294.278 710.949 295.138 709.852C295.998 708.756 297.071 707.845 298.294 707.177C300.771 705.862 303.551 705.223 306.354 705.327C313.084 705.417 319.454 708.607 326.174 708.927C328.053 709.099 329.944 708.782 331.664 708.007C332.584 707.547 333.394 706.877 334.294 706.367C335.734 705.67 337.256 705.156 338.824 704.837C343.231 703.74 347.558 702.343 351.774 700.657C352.974 700.187 354.374 699.337 354.214 698.057C354.004 696.357 351.334 696.157 350.634 694.597C350.511 694.315 350.454 694.009 350.467 693.702C350.481 693.395 350.566 693.096 350.714 692.827C351.094 692.897 351.494 692.977 351.914 693.077C359.184 694.747 363.144 695.407 365.484 701.457Z" fill="black"/>
<path d="M337.824 765.497C328.324 769.837 306.824 765.497 306.824 765.497L297.774 764.967C286.054 764.217 266.314 762.967 259.344 762.377C249.174 761.537 251.674 757.377 251.674 757.377V732.167L301.004 719.667C301.004 719.667 320.504 726.337 325.844 732.167C330.914 737.717 333.844 733.447 342.934 735.047C343.384 735.127 343.854 735.227 344.344 735.337C352.934 737.337 357.594 738.087 360.344 745.207C360.901 746.701 361.345 748.236 361.674 749.797C364.154 761.257 347.324 761.167 337.824 765.497Z" fill="#A36468"/>
<path opacity="0.1" d="M360.324 745.207C358.557 746.31 356.701 747.264 354.774 748.057C348.304 751.007 342.144 754.607 335.604 757.397C329.064 760.187 322.014 762.167 314.924 761.647C311.224 761.377 307.434 760.447 303.924 761.527C301.725 762.383 299.655 763.541 297.774 764.967C286.054 764.217 266.314 762.967 259.344 762.377C249.174 761.537 251.674 757.377 251.674 757.377V754.437C252.088 754.369 252.505 754.322 252.924 754.297C255.36 754.252 257.787 754.614 260.104 755.367L275.394 759.487C275.82 757.897 276.566 756.412 277.585 755.121C278.605 753.829 279.877 752.759 281.324 751.977C284.239 750.423 287.514 749.671 290.814 749.797C298.734 749.907 306.224 753.657 314.134 754.037C316.337 754.238 318.555 753.869 320.574 752.967C321.664 752.417 322.574 751.627 323.674 751.037C325.365 750.208 327.157 749.603 329.004 749.237C334.161 747.935 339.226 746.292 344.164 744.317C345.574 743.757 347.224 742.757 347.034 741.257C346.784 739.257 343.644 739.017 342.814 737.177C342.674 736.845 342.611 736.485 342.628 736.125C342.645 735.765 342.743 735.414 342.914 735.097C343.364 735.177 343.834 735.277 344.324 735.387C352.914 737.307 357.574 738.087 360.324 745.207Z" fill="black"/>
<path d="M316.324 592.507L313.654 655.337C313.654 655.337 309.654 668.167 311.824 671.837C313.994 675.507 317.654 679.167 316.324 681.337C314.994 683.507 298.994 706.967 293.824 697.967C288.654 688.967 283.554 649.967 283.554 649.967L288.324 601.797L316.324 592.507Z" fill="#444053"/>
<path d="M327.904 435.967L335.324 445.887V532.167C335.324 532.167 337.494 555.167 335.324 559.917C333.154 564.667 322.154 574.167 322.154 574.167L312.904 526.667L314.904 476.417L327.904 435.967Z" fill="#444053"/>
<path opacity="0.1" d="M316.324 592.507L313.654 655.337C313.654 655.337 309.654 668.167 311.824 671.837C313.994 675.507 317.654 679.167 316.324 681.337C314.994 683.507 298.994 706.967 293.824 697.967C288.654 688.967 283.554 649.967 283.554 649.967L288.324 601.797L316.324 592.507Z" fill="black"/>
<path opacity="0.1" d="M327.904 435.967L335.324 445.887V532.167C335.324 532.167 337.494 555.167 335.324 559.917C333.154 564.667 322.154 574.167 322.154 574.167L312.904 526.667L314.904 476.417L327.904 435.967Z" fill="black"/>
<path d="M335.324 399.167V445.837L326.994 482.167C326.994 482.167 324.324 569.837 326.654 580.497C328.984 591.157 318.654 601.167 318.654 601.167C318.654 601.167 312.654 601.837 312.654 606.497C312.654 611.157 302.654 624.497 302.654 624.497L302.984 650.497C302.984 650.497 307.324 699.167 300.654 708.497C293.984 717.827 302.984 719.167 302.984 719.167C294.654 746.497 254.654 740.167 251.044 737.167C247.434 734.167 251.044 675.167 251.044 675.167C251.044 675.167 259.984 585.167 266.984 581.167C273.984 577.167 267.324 572.167 269.654 566.167C271.984 560.167 267.324 543.837 267.324 543.837C267.324 543.837 265.324 524.497 260.324 515.167C255.324 505.837 255.984 480.167 255.984 480.167C255.984 480.167 241.984 461.497 237.824 454.167C233.664 446.837 230.984 427.837 231.984 413.497C232.664 403.807 237.754 389.697 240.984 381.577C242.534 377.687 243.654 375.167 243.654 375.167L244.604 375.417L299.224 389.717L335.324 399.167Z" fill="#444053"/>
<path opacity="0.1" d="M340.404 176.167C335.244 177.647 330.314 182.727 326.024 188.897H324.904C318.616 188.901 312.438 187.245 306.995 184.097C301.552 180.949 297.036 176.419 293.904 170.967C292.595 168.707 291.542 166.309 290.764 163.817C293.854 155.967 296.144 149.147 296.144 149.147C296.144 149.147 356.154 171.667 340.404 176.167Z" fill="black"/>
<path d="M360.654 151.167C360.663 156.638 359.416 162.039 357.009 166.952C354.601 171.866 351.098 176.162 346.77 179.508C342.441 182.855 337.401 185.163 332.04 186.255C326.678 187.347 321.138 187.194 315.845 185.808C310.552 184.421 305.648 181.838 301.51 178.258C297.373 174.677 294.112 170.195 291.98 165.156C289.848 160.116 288.901 154.655 289.212 149.192C289.523 143.73 291.084 138.411 293.774 133.647C294.858 131.711 296.124 129.882 297.554 128.187C299.912 125.377 302.684 122.943 305.774 120.967C310.994 117.65 316.984 115.744 323.161 115.434C329.337 115.125 335.488 116.423 341.013 119.202C346.538 121.981 351.247 126.146 354.681 131.289C358.115 136.433 360.156 142.379 360.604 148.547C360.624 149.427 360.654 150.297 360.654 151.167Z" fill="#EFB7B9"/>
<path opacity="0.1" d="M330.614 236.747L330.494 237.847L313.864 211.847C312.124 215.957 311.154 218.707 311.154 218.707C311.154 218.707 271.654 188.967 277.904 186.967C280.004 186.297 282.764 181.797 285.494 176.127L285.834 175.407C288.734 184.047 305.584 201.317 312.594 208.237C313.404 209.037 314.074 209.697 314.594 210.177L315.664 211.177L316.224 211.737C318.774 214.367 329.534 225.967 330.614 236.747Z" fill="black"/>
<path d="M343.044 324.967L341.224 383.537L340.904 393.967C340.904 393.967 319.344 391.967 299.224 389.767C283.024 387.997 267.754 386.087 265.404 384.967C262.404 383.557 255.974 382.467 250.904 381.777C246.984 381.247 243.904 380.967 243.904 380.967C243.904 380.967 242.754 381.307 240.984 381.627C237.124 382.327 230.344 382.897 226.394 379.467C221.344 375.077 234.614 359.127 237.924 355.297L238.654 354.467L237.404 342.917L234.154 312.967C234.154 312.967 232.154 295.717 229.154 286.467C228.352 283.837 227.773 281.144 227.424 278.417C226.309 269.968 226.88 261.383 229.104 253.157C230.054 249.661 230.657 246.08 230.904 242.467C231.404 233.217 259.654 197.467 266.654 194.217C269.803 192.748 272.337 190.221 273.814 187.077C274.302 186.088 274.668 185.044 274.904 183.967C277.904 170.967 285.494 176.127 285.494 176.127C287.324 186.297 315.654 213.217 315.654 213.217L316.214 213.777C319.024 216.657 331.544 230.177 330.654 241.717C330.476 246.012 331.118 250.301 332.544 254.357C338.307 272.501 341.619 291.335 342.394 310.357L343.044 324.967Z" fill="#DCE6F2"/>
<path opacity="0.1" d="M302.904 255.417C302.904 255.417 295.904 272.417 290.654 275.167C285.404 277.917 305.404 280.967 302.904 255.417Z" fill="black"/>
<path opacity="0.1" d="M308.154 287.167C308.154 287.167 292.154 289.167 292.154 292.167C292.154 295.167 308.154 287.167 308.154 287.167Z" fill="black"/>
<path opacity="0.1" d="M324.904 306.667C324.904 306.667 301.654 356.167 295.154 357.667C288.654 359.167 324.904 306.667 324.904 306.667Z" fill="black"/>
<path opacity="0.1" d="M315.214 215.727L295.984 224.087L272.774 189.027C273.262 188.038 273.628 186.994 273.864 185.917C276.864 172.917 284.454 178.077 284.454 178.077C286.284 188.247 314.614 215.167 314.614 215.167L315.214 215.727Z" fill="black"/>
<path d="M316.214 213.727L296.984 222.087L273.774 187.027C274.262 186.038 274.628 184.994 274.864 183.917C277.864 170.917 285.454 176.077 285.454 176.077C287.284 186.247 315.614 213.167 315.614 213.167L316.214 213.727Z" fill="#DCE6F2"/>
<path opacity="0.1" d="M340.904 393.967C340.904 393.967 319.344 391.967 299.224 389.767L335.324 399.217V410.217C333.744 411.647 332.374 412.387 331.484 412.007C327.324 410.257 293.374 404.757 293.374 404.757C293.374 404.757 273.654 394.757 252.374 382.757C251.858 382.47 251.357 382.157 250.874 381.817C248.393 380.132 246.255 377.991 244.574 375.507C240.644 369.817 238.724 362.507 237.894 355.337C237.427 351.228 237.254 347.09 237.374 342.957C237.477 338.269 237.905 333.595 238.654 328.967C236.596 311.041 235.594 293.01 235.654 274.967C235.904 246.967 262.154 236.967 262.154 236.967C310.404 232.717 295.444 310.717 295.444 310.717C295.444 310.717 292.654 332.717 291.894 334.967C291.134 337.217 288.404 340.967 288.774 346.217C289.144 351.467 298.364 357.747 298.364 357.747C298.364 357.747 307.364 361.967 311.074 368.217C313.774 372.827 331.314 379.077 341.224 383.537L340.904 393.967Z" fill="black"/>
<path opacity="0.1" d="M357.064 128.967C357.083 130.614 356.741 132.245 356.064 133.747C355.551 134.972 354.957 136.161 354.284 137.307C353.232 139.413 351.738 141.269 349.904 142.747C347.594 144.397 344.674 144.857 341.904 145.527C339.134 146.197 336.254 147.267 334.674 149.627C333.818 151.144 333.245 152.804 332.984 154.527C332.719 156.248 332.032 157.876 330.984 159.267C330.438 159.946 329.683 160.424 328.836 160.627C327.988 160.829 327.098 160.745 326.304 160.387C325.468 159.823 324.834 159.006 324.494 158.057C323.354 155.487 323.064 152.637 322.604 149.867C322.144 147.097 321.494 144.247 319.794 142.017C318.094 139.787 315.084 138.317 312.414 139.187C311.52 139.531 310.705 140.052 310.018 140.718C309.331 141.385 308.785 142.184 308.414 143.067C307.675 144.834 307.168 146.689 306.904 148.587C305.664 155.373 304.201 162.12 302.514 168.827C302.463 169.102 302.35 169.361 302.184 169.587C301.918 169.852 301.559 170.002 301.184 170.007C298.944 170.307 296.794 168.737 294.534 168.907C294.301 168.922 294.07 168.959 293.844 169.017C290.19 162.666 288.577 155.346 289.222 148.048C289.868 140.75 292.742 133.827 297.454 128.217L297.634 128.167C299.137 127.633 300.504 126.772 301.634 125.647C303.078 124.202 304.414 122.655 305.634 121.017L306.434 120.017C308.733 117.248 311.351 114.76 314.234 112.607C315.021 111.962 315.924 111.473 316.894 111.167C317.724 111.005 318.575 110.978 319.414 111.087C322.868 111.501 326.349 111.632 329.824 111.477C332.245 111.096 334.686 110.849 337.134 110.737C343.464 110.917 348.864 115.387 352.864 120.287C355.014 122.797 356.934 125.687 357.064 128.967Z" fill="black"/>
<path d="M289.104 134.597C287.714 136.877 285.204 138.427 284.264 140.927C282.884 144.557 285.214 149.077 283.074 152.317C282.364 153.407 281.194 154.217 280.794 155.467C280.114 157.577 281.974 159.827 281.494 161.997C281.014 164.167 278.154 165.997 278.914 168.117C279.363 169.041 280.151 169.757 281.114 170.117C282.629 170.986 284.373 171.373 286.114 171.227C288.844 170.777 290.874 168.097 293.644 167.897C295.894 167.737 298.044 169.297 300.284 169.007C300.66 168.994 301.016 168.84 301.284 168.577C301.454 168.354 301.567 168.093 301.614 167.817C303.294 161.117 304.761 154.37 306.014 147.577C306.269 145.679 306.774 143.823 307.514 142.057C307.888 141.176 308.435 140.379 309.122 139.712C309.809 139.046 310.622 138.524 311.514 138.177C314.184 137.317 317.184 138.777 318.894 141.007C320.604 143.237 321.254 146.087 321.714 148.857C322.174 151.627 322.464 154.477 323.594 157.047C323.937 158 324.575 158.819 325.414 159.387C326.914 160.257 328.934 159.567 330.084 158.267C331.138 156.876 331.825 155.242 332.084 153.517C332.345 151.797 332.918 150.14 333.774 148.627C335.354 146.267 338.244 145.197 341.004 144.527C343.764 143.857 346.674 143.387 349.004 141.737C350.835 140.26 352.329 138.409 353.384 136.307C354.864 133.727 356.244 130.927 356.124 127.957C355.994 124.717 354.074 121.827 352.024 119.307C348.024 114.407 342.614 109.937 336.284 109.767C333.835 109.869 331.394 110.116 328.974 110.507C325.499 110.663 322.017 110.529 318.564 110.107C317.725 110.006 316.874 110.037 316.044 110.197C315.073 110.493 314.171 110.983 313.394 111.637C310.508 113.787 307.887 116.271 305.584 119.037C304.1 121.005 302.49 122.876 300.764 124.637C299.633 125.764 298.267 126.628 296.764 127.167C295.764 127.447 294.764 127.247 293.814 127.557C290.864 128.487 290.474 132.337 289.104 134.597Z" fill="#965D7B"/>
<path opacity="0.1" d="M385.404 161.787C377.404 163.257 370.774 156.787 367.104 152.067C365.977 150.633 364.951 149.123 364.034 147.547L391.494 152.727L392.604 152.937C392.604 152.937 397.654 159.547 385.404 161.787Z" fill="black"/>
<g opacity="0.1">
<path opacity="0.1" d="M281.494 159.137C281.606 157.829 281.407 156.513 280.914 155.297C280.914 155.397 280.824 155.497 280.794 155.597C280.364 156.937 280.944 158.327 281.314 159.717C281.394 159.53 281.454 159.336 281.494 159.137V159.137Z" fill="black"/>
<path opacity="0.1" d="M283.874 142.767C283.771 144.149 283.798 145.539 283.954 146.917C284.057 145.534 284.03 144.144 283.874 142.767Z" fill="black"/>
<path opacity="0.1" d="M353.324 133.417C352.272 135.523 350.778 137.379 348.944 138.857C346.634 140.507 343.724 140.967 340.944 141.637C338.164 142.307 335.294 143.377 333.714 145.737C332.859 147.254 332.287 148.915 332.024 150.637C331.764 152.362 331.076 153.995 330.024 155.387C328.874 156.687 326.854 157.387 325.354 156.507C324.515 155.939 323.878 155.12 323.534 154.167C322.404 151.597 322.104 148.757 321.654 145.977C321.204 143.197 320.534 140.357 318.834 138.127C317.134 135.897 314.124 134.427 311.454 135.297C310.561 135.642 309.747 136.164 309.06 136.83C308.373 137.497 307.827 138.295 307.454 139.177C306.714 140.943 306.21 142.799 305.954 144.697C304.707 151.49 303.241 158.237 301.554 164.937C301.507 165.213 301.394 165.474 301.224 165.697C300.956 165.96 300.6 166.114 300.224 166.127C297.984 166.417 295.834 164.857 293.584 165.017C290.814 165.217 288.784 167.897 286.054 168.337C284.313 168.493 282.566 168.105 281.054 167.227C280.359 166.928 279.735 166.485 279.224 165.927C278.99 166.262 278.835 166.645 278.771 167.049C278.707 167.453 278.735 167.866 278.854 168.257C279.295 169.188 280.085 169.907 281.054 170.257C282.566 171.135 284.313 171.523 286.054 171.367C288.784 170.927 290.814 168.247 293.584 168.047C295.834 167.887 297.984 169.447 300.224 169.157C300.6 169.144 300.956 168.99 301.224 168.727C301.394 168.504 301.507 168.243 301.554 167.967C303.234 161.3 304.701 154.553 305.954 147.727C306.21 145.829 306.714 143.973 307.454 142.207C307.827 141.325 308.373 140.527 309.06 139.86C309.747 139.194 310.561 138.672 311.454 138.327C314.124 137.457 317.124 138.927 318.834 141.157C320.544 143.387 321.194 146.237 321.654 149.007C322.114 151.777 322.404 154.627 323.534 157.197C323.878 158.15 324.515 158.969 325.354 159.537C326.854 160.407 328.874 159.717 330.024 158.417C331.076 157.025 331.764 155.392 332.024 153.667C332.287 151.945 332.859 150.284 333.714 148.767C335.294 146.407 338.184 145.347 340.944 144.667C343.704 143.987 346.614 143.537 348.944 141.887C350.778 140.409 352.272 138.553 353.324 136.447C354.804 133.877 356.184 131.077 356.064 128.107C356.044 127.725 356.004 127.344 355.944 126.967C355.462 129.255 354.574 131.44 353.324 133.417V133.417Z" fill="black"/>
</g>
<path opacity="0.1" d="M356.104 133.717C358.669 138.276 360.188 143.348 360.554 148.567C351.644 143.567 343.264 138.077 339.034 136.167C331.664 132.837 304.104 133.337 293.744 133.647C294.828 131.711 296.094 129.882 297.524 128.187C299.891 125.375 302.673 122.94 305.774 120.967C309.881 118.36 314.475 116.619 319.278 115.849C324.08 115.079 328.989 115.296 333.704 116.488C338.42 117.679 342.842 119.82 346.702 122.779C350.562 125.738 353.779 129.453 356.154 133.697L356.104 133.717Z" fill="black"/>
<path opacity="0.1" d="M387.904 157.547C383.094 159.027 375.244 156.167 367.104 152.067C365.977 150.633 364.951 149.123 364.034 147.547L391.494 152.727C393.314 153.967 393.774 155.737 387.904 157.547Z" fill="black"/>
<path d="M327.034 99.0466C327.034 99.0466 300.784 97.5466 293.404 111.797L292.214 124.427L290.214 124.207L289.814 132.797C289.814 132.797 329.934 131.047 339.064 135.167C348.194 139.287 376.564 160.047 387.934 156.547C399.304 153.047 386.934 149.797 386.934 149.797C386.934 149.797 371.284 143.167 371.284 137.967C371.284 132.767 367.404 105.297 327.034 99.0466Z" fill="#444053"/>
<path opacity="0.1" d="M276.404 567.247C276.404 567.247 293.154 583.497 300.404 582.247C300.404 582.247 279.904 580.497 276.404 567.247Z" fill="black"/>
<path opacity="0.1" d="M272.904 574.777C272.904 574.777 274.404 583.137 278.404 582.317C282.404 581.497 272.904 574.777 272.904 574.777Z" fill="black"/>
<path opacity="0.1" d="M299.154 714.497C299.154 714.497 275.374 732.997 279.384 733.497C283.394 733.997 299.154 714.497 299.154 714.497Z" fill="black"/>
<path d="M330.964 347.327L407.964 334.797V407.697L334.804 403.867L330.964 347.327Z" fill="#6C63FF"/>
<path opacity="0.05" d="M330.964 347.327L407.964 334.797V407.697L334.804 403.867L330.964 347.327Z" fill="black"/>
<path d="M407.964 334.797L500.304 341.707L495.194 405.147L407.964 407.697V334.797Z" fill="#6C63FF"/>
<path opacity="0.1" d="M407.964 334.797L500.304 341.707L495.194 405.147L407.964 407.697V334.797Z" fill="black"/>
<path d="M436.354 312.547L407.964 334.797L500.304 341.707L515.394 318.937L436.354 312.547Z" fill="#6C63FF"/>
<path d="M303.084 323.027L372.404 314.587L407.964 334.797L330.964 347.327L303.084 323.027Z" fill="#6C63FF"/>
<path d="M424.844 353.727V453.397L388.774 449.697L373.084 448.097L368.304 447.597L352.624 445.987L330.964 443.767V347.327L407.954 352.567L424.844 353.727Z" fill="#6C63FF"/>
<path d="M500.304 341.707V438.907L471.394 444.457L457.334 447.157L424.844 453.397V353.727L500.304 341.707Z" fill="#6C63FF"/>
<path opacity="0.05" d="M500.304 341.707V438.907L471.394 444.457L457.334 447.157L424.844 453.397V353.727L500.304 341.707Z" fill="black"/>
<path d="M303.084 368.307L330.964 347.327L424.844 353.727L411.024 377.007L303.084 368.307Z" fill="#6C63FF"/>
<path opacity="0.1" d="M303.084 368.307L330.964 347.327L424.844 353.727L411.024 377.007L303.084 368.307Z" fill="white"/>
<path d="M500.304 341.707L424.844 353.727L449.404 375.727L530.234 362.167L500.304 341.707Z" fill="#6C63FF"/>
<path opacity="0.1" d="M500.304 341.707L424.844 353.727L449.404 375.727L530.234 362.167L500.304 341.707Z" fill="white"/>
<path opacity="0.1" d="M471.394 444.457L457.334 447.157V426.387L470.504 423.067L471.394 444.457Z" fill="white"/>
<path opacity="0.1" d="M388.774 435.957V449.697L373.084 448.097V435.957H388.774Z" fill="white"/>
<path opacity="0.1" d="M368.304 440.287V447.597L352.624 445.987V440.287H368.304Z" fill="white"/>
<path opacity="0.1" d="M415.404 428.667C404.654 442.417 369.154 432.917 369.154 432.917L342.774 405.397L339.194 401.667L346.194 388.667C346.194 388.667 348.194 389.327 351.534 390.487C369.214 396.667 424.454 417.097 415.404 428.667Z" fill="black"/>
<path d="M414.404 426.667C403.654 440.417 368.154 430.917 368.154 430.917L341.774 403.397L338.194 399.667L345.194 386.667C345.194 386.667 347.194 387.327 350.534 388.487C368.214 394.667 423.454 415.097 414.404 426.667Z" fill="#EFB7B9"/>
<path opacity="0.1" d="M350.494 388.487C349.034 392.687 345.324 398.907 341.734 403.397L338.154 399.667L345.154 386.667C345.154 386.667 347.164 387.327 350.494 388.487Z" fill="black"/>
<path d="M263.154 232.967C263.154 232.967 236.904 242.967 236.654 270.967C236.594 289.01 237.596 307.041 239.654 324.967C239.654 324.967 232.154 366.717 253.404 378.717C274.654 390.717 294.404 400.717 294.404 400.717C294.404 400.717 328.354 406.217 332.524 407.967C336.694 409.717 351.184 387.217 348.934 383.467C346.684 379.717 315.774 370.467 312.104 364.217C308.434 357.967 299.394 353.757 299.394 353.757C299.394 353.757 290.174 347.467 289.804 342.217C289.434 336.967 292.154 333.217 292.924 330.967C293.694 328.717 296.484 306.717 296.484 306.717C296.484 306.717 311.404 228.667 263.154 232.967Z" fill="#DCE6F2"/>
<path opacity="0.1" d="M275.154 325.667C275.154 325.667 239.654 329.667 242.404 342.167C242.404 342.167 255.894 329.557 275.154 325.667Z" fill="black"/>
<path opacity="0.1" d="M275.154 330.667C275.154 330.667 255.004 345.417 258.704 346.417C262.404 347.417 275.154 330.667 275.154 330.667Z" fill="black"/>
<path opacity="0.1" d="M284.154 336.667C284.154 336.667 278.404 347.007 281.654 346.467C284.904 345.927 284.154 336.667 284.154 336.667Z" fill="black"/>
<path d="M653.774 112.387C653.774 112.387 615.774 110.097 620.214 136.757C620.214 136.757 619.324 141.467 623.594 143.607C623.594 143.607 623.664 141.607 627.494 142.297C628.858 142.526 630.244 142.593 631.624 142.497C633.494 142.372 635.271 141.638 636.684 140.407V140.407C636.684 140.407 647.374 135.997 651.534 118.517C651.534 118.517 654.614 114.697 654.534 113.717L648.114 116.467C648.114 116.467 650.304 121.097 648.574 124.947C648.574 124.947 648.374 116.637 647.134 116.827C646.884 116.827 643.804 118.437 643.804 118.437C643.804 118.437 647.574 126.497 644.724 132.367C644.724 132.367 645.804 122.427 642.624 119.017L638.104 121.657C638.104 121.657 642.514 129.987 639.524 136.787C639.524 136.787 640.294 126.357 637.154 122.297L633.054 125.487C633.054 125.487 637.204 133.707 634.674 139.347C634.674 139.347 634.344 127.207 632.164 126.287C632.164 126.287 628.584 129.447 628.044 130.747C628.044 130.747 630.874 136.747 629.114 139.857C629.114 139.857 628.034 131.767 627.114 131.727C627.114 131.727 623.544 137.087 623.174 140.727C623.347 137.333 624.405 134.044 626.244 131.187C624.187 131.576 622.288 132.56 620.784 134.017C620.784 134.017 621.334 130.227 627.124 129.897C627.124 129.897 630.124 125.827 630.864 125.577C630.864 125.577 625.104 125.097 621.614 126.647C621.614 126.647 624.684 123.077 631.924 124.647L635.924 121.347C635.924 121.347 628.344 120.347 625.124 121.457C625.124 121.457 628.824 118.297 637.014 120.597L641.414 117.967C641.414 117.967 634.954 116.567 631.104 117.077C631.104 117.077 635.164 114.887 642.704 117.257L645.854 115.847C645.854 115.847 641.114 114.917 639.734 114.767C638.354 114.617 638.274 114.237 638.274 114.237C641.273 113.738 644.351 114.084 647.164 115.237C647.164 115.237 653.914 112.807 653.774 112.387Z" fill="#6C63FF"/>
<path opacity="0.1" d="M769.234 245.727C769.234 245.727 731.234 243.437 735.674 270.097C735.674 270.097 734.784 274.807 739.054 276.947C739.054 276.947 739.124 274.947 742.964 275.637C744.328 275.866 745.714 275.933 747.094 275.837C748.942 275.703 750.697 274.973 752.094 273.757V273.757C752.094 273.757 762.794 269.337 766.954 251.857C766.954 251.857 770.024 248.047 769.904 247.067L763.484 249.807C763.484 249.807 765.674 254.437 763.954 258.287C763.954 258.287 763.744 249.977 762.514 250.167C762.264 250.167 759.174 251.777 759.174 251.777C759.174 251.777 762.954 259.847 760.104 265.707C760.104 265.707 761.184 255.767 757.994 252.357L753.524 254.967C753.524 254.967 757.934 263.297 754.944 270.097C754.944 270.097 755.714 259.667 752.574 255.607L748.484 258.807C748.484 258.807 752.624 267.017 750.104 272.657C750.104 272.657 749.774 260.517 747.594 259.597C747.594 259.597 744.014 262.757 743.464 264.057C743.464 264.057 746.304 270.057 744.544 273.167C744.544 273.167 743.464 265.077 742.544 265.037C742.544 265.037 738.974 270.397 738.604 274.037C738.783 270.643 739.844 267.354 741.684 264.497C739.624 264.887 737.723 265.87 736.214 267.327C736.214 267.327 736.774 263.537 742.564 263.207C742.564 263.207 745.514 259.137 746.304 258.887C746.304 258.887 740.544 258.407 737.054 259.957C737.054 259.957 740.124 256.387 747.354 258.007L751.354 254.707C751.354 254.707 743.764 253.707 740.554 254.817C740.554 254.817 744.254 251.657 752.444 253.957L756.844 251.327C756.844 251.327 750.374 249.937 746.524 250.437C746.524 250.437 750.594 248.247 758.134 250.617L761.284 249.207C761.284 249.207 756.544 248.277 755.154 248.127C753.764 247.977 753.694 247.597 753.694 247.597C756.696 247.097 759.778 247.444 762.594 248.597C762.594 248.597 769.354 246.147 769.234 245.727Z" fill="#6C63FF"/>
<path opacity="0.1" d="M538.384 222.057C538.384 222.057 547.134 184.967 520.094 184.837C520.094 184.837 515.604 183.157 512.774 186.997C512.774 186.997 514.704 187.407 513.394 191.067C512.941 192.361 512.639 193.703 512.494 195.067C512.3 196.925 512.718 198.797 513.684 200.397V200.397C513.684 200.397 516.214 211.697 532.684 218.777C532.684 218.777 535.924 222.457 536.904 222.497L535.304 215.707C535.304 215.707 530.364 217.077 526.864 214.707C526.864 214.707 535.094 215.917 535.104 214.707C535.104 214.457 534.104 211.147 534.104 211.147C534.104 211.147 525.514 213.487 520.214 209.677C520.214 209.677 529.824 212.437 533.734 209.887L531.934 204.967C531.934 204.967 522.934 207.897 516.774 203.787C516.774 203.787 526.924 206.327 531.464 203.927L529.014 199.347C529.014 199.347 520.214 202.027 515.084 198.577C515.084 198.577 527.084 200.317 528.384 198.337C528.384 198.337 525.884 194.267 524.694 193.507C524.694 193.507 518.334 195.287 515.534 193.017C515.534 193.017 523.684 193.327 523.874 192.467C523.874 192.467 519.204 188.037 515.644 187.037C518.962 187.792 522.026 189.398 524.534 191.697C524.498 189.601 523.851 187.561 522.674 185.827C522.674 185.827 526.314 187.027 525.674 192.827C525.674 192.827 529.174 196.427 529.284 197.247C529.284 197.247 530.734 191.657 529.804 187.947C529.804 187.947 532.804 191.587 529.974 198.437L532.534 202.987C532.534 202.987 534.854 195.687 534.264 192.327C534.264 192.327 536.754 196.507 533.084 204.187L534.934 208.977C534.934 208.977 537.404 202.837 537.564 198.977C537.564 198.977 539.034 203.357 535.404 210.387L536.264 213.727C536.264 213.727 537.984 209.217 538.364 207.877C538.744 206.537 539.134 206.527 539.134 206.527C539.119 209.569 538.257 212.547 536.644 215.127C536.644 215.127 537.954 222.107 538.384 222.057Z" fill="#6C63FF"/>
<path opacity="0.1" d="M455.164 234.697C455.164 234.697 424.644 211.867 413.734 236.597C413.734 236.597 410.404 240.047 412.794 244.177C412.794 244.177 413.934 242.567 416.794 245.237C417.807 246.179 418.928 246.998 420.134 247.677C421.767 248.586 423.653 248.937 425.504 248.677V248.677C425.504 248.677 436.864 250.867 449.944 238.557C449.944 238.557 454.614 237.057 455.054 236.177L448.164 234.967C448.164 234.967 447.444 240.037 443.894 242.307C443.894 242.307 448.284 235.247 447.144 234.737C446.914 234.627 443.474 234.237 443.474 234.237C443.474 234.237 442.194 243.057 436.594 246.387C436.594 246.387 442.964 238.677 442.174 234.077L436.944 233.797C436.944 233.797 436.054 243.187 429.814 247.227C429.814 247.227 436.184 238.937 435.814 233.817L430.634 234.237C430.634 234.237 429.584 243.367 424.374 246.687C424.374 246.687 430.764 236.367 429.454 234.407C429.454 234.407 424.724 235.077 423.554 235.857C423.554 235.857 422.644 242.397 419.444 244.057C419.444 244.057 422.994 236.707 422.274 236.197C422.274 236.197 416.344 238.707 414.014 241.567C416.03 238.828 418.725 236.664 421.834 235.287C419.9 234.483 417.773 234.26 415.714 234.647C415.714 234.647 418.254 231.787 423.274 234.697C423.274 234.697 427.974 232.927 428.774 233.147C428.774 233.147 424.224 229.577 420.454 228.957C420.454 228.957 424.994 227.657 430.144 232.957L435.334 232.427C435.334 232.427 429.564 227.427 426.254 226.587C426.254 226.587 431.084 225.977 436.654 232.397L441.774 232.627C441.774 232.627 437.144 227.907 433.654 226.207C433.654 226.207 438.244 226.607 443.244 232.737L446.654 233.287C446.654 233.287 443.204 229.907 442.124 229.027C441.044 228.147 441.194 227.777 441.194 227.777C443.976 229.009 446.361 230.989 448.084 233.497C448.084 233.497 455.034 235.107 455.164 234.697Z" fill="#6C63FF"/>
<path opacity="0.1" d="M556.774 22.5866C556.774 22.5866 526.254 -0.253384 515.344 24.4866C515.344 24.4866 512.014 27.9366 514.404 32.0666C514.404 32.0666 515.544 30.4566 518.404 33.1266C519.423 34.0642 520.547 34.8797 521.754 35.5566C523.387 36.4667 525.273 36.8179 527.124 36.5566V36.5566C527.124 36.5566 538.484 38.7466 551.564 26.4266C551.564 26.4266 556.234 24.9366 556.664 24.0466L549.774 22.8566C549.774 22.8566 549.064 27.9266 545.504 30.1966C545.504 30.1966 549.904 23.1366 548.764 22.6266C548.534 22.5166 545.094 22.1266 545.094 22.1266C545.094 22.1266 543.774 30.9666 538.174 34.2766C538.174 34.2766 544.534 26.5666 543.754 21.9666L538.524 21.6866C538.524 21.6866 537.624 31.0766 531.394 35.1066C531.394 35.1066 537.764 26.8166 537.394 21.6966L532.224 22.1166C532.224 22.1166 531.164 31.2566 525.954 34.5766C525.954 34.5766 532.354 24.2566 531.044 22.2966C531.044 22.2966 526.314 22.9666 525.144 23.7466C525.144 23.7466 524.234 30.2866 521.034 31.9466C521.034 31.9466 524.584 24.5966 523.864 24.0766C523.864 24.0766 517.934 26.5966 515.604 29.4566C517.617 26.7153 520.313 24.5499 523.424 23.1766C521.488 22.3667 519.356 22.1441 517.294 22.5366C517.294 22.5366 519.844 19.6766 524.864 22.5866C524.864 22.5866 529.564 20.8066 530.364 21.0366C530.364 21.0366 525.814 17.4666 522.044 16.8366C522.044 16.8366 526.574 15.5466 531.724 20.8366L536.914 20.3066C536.914 20.3066 531.154 15.3066 527.834 14.4566C527.834 14.4566 532.664 13.8566 538.244 20.2766L543.364 20.4966C543.364 20.4966 538.734 15.7766 535.234 14.0866C535.234 14.0866 539.834 14.4866 544.834 20.6166L548.234 21.1666C548.234 21.1666 544.774 17.8266 543.694 16.9666C542.614 16.1066 542.764 15.7266 542.764 15.7266C545.547 16.9572 547.933 18.9377 549.654 21.4466C549.654 21.4466 556.604 22.9666 556.774 22.5866Z" fill="#6C63FF"/>
<path opacity="0.1" d="M673.394 51.5166C673.394 51.5166 661.194 15.4066 638.184 29.5966C638.184 29.5966 633.484 30.5966 633.114 35.3066C633.114 35.3066 634.964 34.6266 635.784 38.4266C636.089 39.7783 636.548 41.0904 637.154 42.3366C637.981 44.0138 639.328 45.3785 640.994 46.2266V46.2266C640.994 46.2266 649.114 54.4766 666.874 51.7466C666.874 51.7466 671.564 53.1666 672.424 52.6766L667.424 47.7666C667.424 47.7666 663.964 51.5366 659.744 51.3866C659.744 51.3866 667.374 48.0666 666.744 46.9966C666.614 46.7866 664.004 44.5166 664.004 44.5166C664.004 44.5166 657.944 51.0466 651.444 50.6166C651.444 50.6166 661.054 47.8766 663.014 43.6166L658.874 40.4266C658.874 40.4266 652.814 47.6466 645.384 47.4266C645.384 47.4266 655.384 44.2166 657.914 39.7766L653.414 37.1866C653.414 37.1866 647.414 44.1166 641.194 43.8966C641.194 43.8966 652.314 39.0266 652.344 36.6666C652.344 36.6666 648.074 34.5366 646.664 34.5166C646.664 34.5166 642.204 39.3866 638.664 38.9466C638.664 38.9466 645.744 34.8966 645.444 34.0666C645.444 34.0666 639.144 32.7766 635.594 33.8166C638.805 32.6987 642.252 32.4401 645.594 33.0666C644.453 31.3056 642.823 29.9155 640.904 29.0666C640.904 29.0666 644.624 28.1566 647.114 33.3966C647.114 33.3966 651.994 34.6066 652.514 35.2366C652.514 35.2366 650.794 29.7266 648.044 27.0666C648.044 27.0666 652.514 28.5766 653.734 35.8866L658.314 38.3866C658.314 38.3866 656.424 30.9766 654.144 28.3866C654.144 28.3866 658.474 30.6266 659.414 39.0766L663.514 42.1666C663.514 42.1666 662.374 35.6466 660.454 32.2666C660.454 32.2666 664.014 35.2066 664.654 43.0966L667.144 45.4766C667.144 45.4766 666.224 40.7366 665.844 39.3966C665.464 38.0566 665.774 37.9666 665.774 37.9666C667.364 40.5608 668.205 43.5441 668.204 46.5866C668.204 46.5866 673.044 51.7766 673.394 51.5166Z" fill="#6C63FF"/>
<path opacity="0.1" d="M593.774 53.2966C593.774 53.2966 555.874 49.0766 559.004 75.9666C559.004 75.9666 557.874 80.6266 562.004 82.9666C562.004 82.9666 562.174 80.9666 566.004 81.8666C567.358 82.1579 568.74 82.2954 570.124 82.2766C571.994 82.2429 573.802 81.6004 575.274 80.4466V80.4466C575.274 80.4466 586.184 76.5766 591.274 59.3266C591.274 59.3266 594.534 55.6766 594.464 54.6866L587.914 57.1066C587.914 57.1066 589.914 61.8366 587.914 65.5966C587.914 65.5966 588.124 57.2866 586.914 57.4166C586.664 57.4166 583.504 58.8566 583.504 58.8566C583.504 58.8566 586.864 67.1066 583.724 72.8566C583.724 72.8566 585.304 62.9766 582.294 59.4166L577.644 61.8166C577.644 61.8166 581.644 70.3666 578.294 77.0066C578.294 77.0066 579.594 66.6266 576.664 62.4166L572.414 65.4166C572.414 65.4166 576.134 73.8266 573.324 79.3366C573.324 79.3366 573.614 67.1966 571.484 66.1666C571.484 66.1666 567.744 69.1666 567.134 70.4066C567.134 70.4066 569.664 76.5066 567.754 79.5566C567.754 79.5566 567.084 71.4266 566.204 71.3466C566.204 71.3466 562.364 76.5166 561.804 80.1666C562.151 76.7827 563.378 73.5486 565.364 70.7866C563.289 71.0734 561.343 71.9596 559.764 73.3366C559.764 73.3366 560.504 69.5866 566.304 69.5466C566.304 69.5466 569.454 65.6366 570.304 65.4266C570.304 65.4266 564.574 64.6566 561.004 66.0266C561.004 66.0266 564.254 62.6066 571.394 64.5966L575.604 61.5066C575.604 61.5066 567.994 59.9666 564.774 60.9666C564.774 60.9666 568.634 57.9666 576.694 60.7166L581.224 58.3066C581.224 58.3066 574.834 56.5866 570.964 56.8966C570.964 56.8966 575.134 54.8966 582.544 57.6666L585.764 56.4166C585.764 56.4166 581.074 55.2466 579.694 55.0266C578.314 54.8066 578.264 54.4266 578.264 54.4266C581.287 54.0798 584.347 54.5782 587.104 55.8666C587.104 55.8666 593.844 53.7166 593.774 53.2966Z" fill="#6C63FF"/>
<path opacity="0.1" d="M854.714 84.8366C854.714 84.8366 824.194 62.0066 813.284 86.7366C813.284 86.7366 809.954 90.1866 812.344 94.3166C812.344 94.3166 813.484 92.7066 816.344 95.3766C817.357 96.3191 818.478 97.1381 819.684 97.8166C821.318 98.7254 823.203 99.0765 825.054 98.8166V98.8166C825.054 98.8166 836.414 101.007 849.504 88.6966C849.504 88.6966 854.164 87.1966 854.604 86.3166L847.734 85.0766C847.734 85.0766 847.014 90.1466 843.464 92.4166C843.464 92.4166 847.854 85.3566 846.714 84.8466C846.484 84.7366 843.054 84.3466 843.054 84.3466C843.054 84.3466 841.764 93.1666 836.164 96.4966C836.164 96.4966 842.534 88.7866 841.744 84.1866L836.514 83.9066C836.514 83.9066 835.624 93.2966 829.384 97.3366C829.384 97.3366 835.764 89.0466 835.384 83.9266L830.204 84.3466C830.204 84.3466 829.204 93.4766 823.944 96.7966C823.944 96.7966 830.344 86.4766 829.024 84.5166C829.024 84.5166 824.294 85.1866 823.124 85.9666C823.124 85.9666 822.224 92.5066 819.024 94.1666C819.024 94.1666 822.564 86.8166 821.844 86.3066C821.844 86.3066 815.914 88.8166 813.584 91.6766C815.6 88.9383 818.295 86.7735 821.404 85.3966C819.47 84.5926 817.343 84.3702 815.284 84.7566C815.284 84.7566 817.834 81.8966 822.854 84.8066C822.854 84.8066 827.544 83.0366 828.344 83.2566C828.344 83.2566 823.794 79.6866 820.024 79.0666C820.024 79.0666 824.564 77.7666 829.714 83.0666L834.904 82.5366C834.904 82.5366 829.144 77.5366 825.824 76.6966C825.824 76.6966 830.654 76.0866 836.224 82.5066L841.354 82.7366C841.354 82.7366 836.714 78.0166 833.224 76.3166C833.224 76.3166 837.824 76.7166 842.814 82.8466L846.224 83.3966C846.224 83.3966 842.774 80.0166 841.694 79.1366C840.614 78.2566 840.774 77.9666 840.774 77.9666C843.552 79.2006 845.934 81.1806 847.654 83.6866C847.654 83.6866 854.584 85.2466 854.714 84.8366Z" fill="#6C63FF"/>
<path opacity="0.1" d="M878.294 249.657C878.294 249.657 867.774 213.027 844.114 226.177C844.114 226.177 839.374 226.907 838.784 231.647C838.784 231.647 840.664 231.057 841.314 234.887C841.555 236.263 841.958 237.605 842.514 238.887C843.256 240.61 844.541 242.043 846.174 242.967V242.967C846.174 242.967 853.914 251.567 871.774 249.647C871.774 249.647 876.394 251.267 877.274 250.827L872.544 245.687C872.544 245.687 868.914 249.307 864.714 248.967C864.714 248.967 872.474 245.967 871.874 244.897C871.754 244.677 869.254 242.287 869.254 242.287C869.254 242.287 862.914 248.547 856.434 247.817C856.434 247.817 866.164 245.517 868.304 241.377L864.304 237.997C864.304 237.997 857.924 244.937 850.514 244.397C850.514 244.397 860.594 241.627 863.374 237.317L858.994 234.527C858.994 234.527 852.644 241.177 846.484 240.677C846.484 240.677 857.814 236.307 857.954 233.957C857.954 233.957 853.774 231.637 852.364 231.557C852.364 231.557 847.694 236.217 844.144 235.617C844.144 235.617 851.404 231.887 851.144 231.047C851.144 231.047 844.904 229.477 841.314 230.347C844.566 229.382 848.012 229.282 851.314 230.057C850.257 228.247 848.692 226.787 846.814 225.857C846.814 225.857 850.574 225.107 852.814 230.457C852.814 230.457 857.624 231.877 858.124 232.537C858.124 232.537 856.654 226.947 854.024 224.177C854.024 224.177 858.424 225.877 859.314 233.237L863.774 235.947C863.774 235.947 862.214 228.447 860.054 225.807C860.054 225.807 864.274 228.237 864.844 236.717L868.844 239.987C868.844 239.987 867.994 233.427 866.234 229.987C866.234 229.987 869.664 233.087 869.944 240.987L872.324 243.487C872.324 243.487 871.624 238.707 871.324 237.347C871.024 235.987 871.324 235.797 871.324 235.797C872.804 238.457 873.514 241.476 873.374 244.517C873.374 244.517 877.934 249.897 878.294 249.657Z" fill="#6C63FF"/>
<path opacity="0.1" d="M643.874 332.197C643.874 332.197 623.444 300.017 604.474 319.277C604.474 319.277 600.134 321.277 600.894 326.027C600.894 326.027 602.544 324.927 604.244 328.427C604.855 329.667 605.614 330.829 606.504 331.887C607.696 333.33 609.33 334.342 611.154 334.767V334.767C611.154 334.767 621.004 340.847 637.604 333.967C637.604 333.967 642.494 334.227 643.214 333.557L637.214 329.957C637.214 329.957 634.744 334.457 630.614 335.307C630.614 335.307 637.234 330.307 636.344 329.387C636.174 329.207 633.094 327.627 633.094 327.627C633.094 327.627 628.764 335.407 622.344 336.537C622.344 336.537 631.034 331.587 631.934 327.007L627.144 324.897C627.144 324.897 622.974 333.347 615.714 334.897C615.714 334.897 624.614 329.407 626.064 324.487L621.064 323.047C621.064 323.047 616.844 331.217 610.794 332.467C610.794 332.467 620.434 325.087 619.904 322.787C619.904 322.787 615.244 321.737 613.904 322.057C613.904 322.057 610.734 327.847 607.154 328.267C607.154 328.267 613.074 322.647 612.584 321.907C612.584 321.907 606.154 322.157 602.954 324.007C605.809 322.157 609.098 321.089 612.494 320.907C610.974 319.467 609.065 318.505 607.004 318.137C607.004 318.137 610.394 316.367 614.004 320.867C614.004 320.867 619.004 320.867 619.694 321.367C619.694 321.367 616.694 316.367 613.404 314.497C613.404 314.497 618.104 314.897 621.024 321.707L626.074 323.047C626.074 323.047 622.464 316.297 619.654 314.367C619.654 314.367 624.384 315.507 627.314 323.497L632.034 325.497C632.034 325.497 629.374 319.447 626.704 316.617C626.704 316.617 630.864 318.617 633.354 326.127L636.354 327.857C636.354 327.857 634.354 323.467 633.644 322.257C632.934 321.047 633.214 320.767 633.214 320.767C635.378 322.904 636.905 325.601 637.624 328.557C637.624 328.557 643.604 332.537 643.874 332.197Z" fill="#6C63FF"/>
<path d="M778.144 167.777C778.144 167.777 758.714 134.987 739.144 153.647C739.144 153.647 734.744 155.547 735.364 160.287C735.364 160.287 737.034 159.227 738.634 162.777C739.206 164.039 739.928 165.227 740.784 166.317C741.933 167.791 743.535 168.846 745.344 169.317V169.317C745.344 169.317 754.994 175.697 771.804 169.317C771.804 169.317 776.684 169.727 777.424 169.077L771.554 165.297C771.554 165.297 768.954 169.707 764.794 170.437C764.794 170.437 771.564 165.607 770.714 164.697C770.534 164.507 767.514 162.827 767.514 162.827C767.514 162.827 762.944 170.477 756.514 171.407C756.514 171.407 765.354 166.727 766.384 162.187L761.664 159.967C761.664 159.967 757.234 168.297 749.924 169.627C749.924 169.627 758.994 164.417 760.594 159.547L755.654 157.947C755.654 157.947 751.174 165.947 745.094 167.047C745.094 167.047 754.954 159.967 754.494 157.657C754.494 157.657 749.874 156.457 748.494 156.737C748.494 156.737 745.144 162.427 741.554 162.737C741.554 162.737 747.644 157.317 747.184 156.557C747.184 156.557 740.744 156.607 737.494 158.357C740.406 156.601 743.725 155.635 747.124 155.557C745.646 154.07 743.766 153.048 741.714 152.617C741.714 152.617 745.164 150.947 748.714 155.557C748.714 155.557 753.714 155.727 754.384 156.237C754.384 156.237 751.554 151.237 748.314 149.177C748.314 149.177 752.994 149.717 755.704 156.617L760.704 158.117C760.704 158.117 757.314 151.257 754.554 149.237C754.554 149.237 759.254 150.527 761.934 158.597L766.584 160.767C766.584 160.767 764.114 154.637 761.584 151.767C761.584 151.767 765.674 153.897 767.944 161.477L770.874 163.297C770.874 163.297 768.994 158.847 768.334 157.617C767.674 156.387 767.954 156.117 767.954 156.117C770.05 158.32 771.494 161.062 772.124 164.037C772.124 164.037 777.854 168.107 778.144 167.777Z" fill="#6C63FF"/>
<path d="M655.214 236.727C655.214 236.727 656.214 198.627 629.744 203.997C629.744 203.997 625.004 203.267 623.004 207.607C623.004 207.607 625.004 207.607 624.444 211.457C624.261 212.829 624.241 214.219 624.384 215.597C624.565 217.465 625.356 219.222 626.634 220.597C626.634 220.597 631.404 231.137 649.014 234.717C649.014 234.717 652.924 237.667 653.904 237.507L650.904 231.187C650.904 231.187 646.354 233.527 642.444 231.937C642.444 231.937 650.744 231.447 650.514 230.227C650.514 229.977 648.794 226.937 648.794 226.937C648.794 226.937 640.854 230.987 634.904 228.327C634.904 228.327 644.904 229.077 648.174 225.787L645.384 221.357C645.384 221.357 637.204 226.037 630.304 223.277C630.304 223.277 640.754 223.697 644.714 220.427L641.384 216.427C641.384 216.427 633.314 220.847 627.594 218.507C627.594 218.507 639.714 217.777 640.594 215.567C640.594 215.567 637.314 212.097 635.994 211.567C635.994 211.567 630.134 214.567 626.934 212.947C626.934 212.947 634.934 211.607 634.984 210.717C634.984 210.717 629.514 207.327 625.824 207.077C629.227 207.137 632.554 208.089 635.474 209.837C635.019 207.793 633.976 205.926 632.474 204.467C632.474 204.467 636.284 204.897 636.804 210.667C636.804 210.667 640.974 213.487 641.244 214.267C641.244 214.267 641.534 208.497 639.864 205.057C639.864 205.057 643.544 208.007 642.164 215.287L645.594 219.227C645.594 219.227 646.374 211.607 645.124 208.437C645.124 208.437 648.404 212.027 646.384 220.287L649.154 224.597C649.154 224.597 650.334 218.087 649.704 214.257C649.704 214.257 652.024 218.257 649.904 225.867L651.424 228.967C651.424 228.967 652.194 224.197 652.294 222.807C652.394 221.417 652.774 221.327 652.774 221.327C653.376 224.31 653.137 227.401 652.084 230.257C652.084 230.257 654.774 236.857 655.214 236.727Z" fill="#6C63FF"/>
<path opacity="0.1" d="M698.974 720.847C713.847 720.847 725.904 718.81 725.904 716.297C725.904 713.784 713.847 711.747 698.974 711.747C684.101 711.747 672.044 713.784 672.044 716.297C672.044 718.81 684.101 720.847 698.974 720.847Z" fill="#6C63FF"/>
<path opacity="0.1" d="M600.804 789.927C615.677 789.927 627.734 787.89 627.734 785.377C627.734 782.864 615.677 780.827 600.804 780.827C585.931 780.827 573.874 782.864 573.874 785.377C573.874 787.89 585.931 789.927 600.804 789.927Z" fill="#6C63FF"/>
<path opacity="0.1" d="M93.1441 754.537C108.017 754.537 120.074 752.5 120.074 749.987C120.074 747.474 108.017 745.437 93.1441 745.437C78.2711 745.437 66.2141 747.474 66.2141 749.987C66.2141 752.5 78.2711 754.537 93.1441 754.537Z" fill="#6C63FF"/>
<path opacity="0.1" d="M805.064 785.377C819.937 785.377 831.994 783.34 831.994 780.827C831.994 778.314 819.937 776.277 805.064 776.277C790.191 776.277 778.134 778.314 778.134 780.827C778.134 783.34 790.191 785.377 805.064 785.377Z" fill="#6C63FF"/>
<path d="M833.104 729.897C855.311 729.897 873.314 726.852 873.314 723.097C873.314 719.341 855.311 716.297 833.104 716.297C810.897 716.297 792.894 719.341 792.894 723.097C792.894 726.852 810.897 729.897 833.104 729.897Z" fill="#6C63FF"/>
<path d="M849.774 711.967C851.61 710.475 852.946 708.458 853.604 706.187C854.104 703.887 853.124 701.137 850.934 700.297C848.474 699.357 845.844 701.057 843.844 702.777C841.844 704.497 839.574 706.467 836.964 706.107C838.304 704.889 839.306 703.347 839.874 701.628C840.442 699.909 840.556 698.072 840.204 696.297C840.091 695.561 839.78 694.869 839.304 694.297C837.934 692.837 835.464 693.467 833.824 694.617C828.624 698.277 827.174 705.337 827.144 711.697C826.624 709.407 827.064 707.017 827.054 704.697C827.044 702.377 826.394 699.697 824.404 698.477C823.183 697.796 821.803 697.45 820.404 697.477C818.064 697.397 815.454 697.627 813.864 699.337C811.864 701.457 812.394 705.027 814.114 707.337C815.834 709.647 818.464 711.137 820.884 712.757C822.821 713.913 824.475 715.488 825.724 717.367C825.867 717.628 825.984 717.903 826.074 718.187H840.734C844.016 716.534 847.057 714.441 849.774 711.967V711.967Z" fill="#6C63FF"/>
<path d="M75.0641 728.837C75.0641 728.837 90.4141 728.367 95.0641 725.067C99.7141 721.767 118.694 717.837 119.844 723.127C120.994 728.417 142.924 749.417 125.584 749.557C108.244 749.697 85.2941 746.857 80.6741 744.037C76.0541 741.217 75.0641 728.837 75.0641 728.837Z" fill="#A8A8A8"/>
<path opacity="0.2" d="M125.874 747.717C108.534 747.857 85.5841 745.017 80.9641 742.197C77.4441 740.057 76.0441 732.367 75.5741 728.817H75.0641C75.0641 728.817 76.0641 741.207 80.6541 744.017C85.2441 746.827 108.224 749.677 125.564 749.537C130.564 749.537 132.294 747.717 132.204 745.077C131.504 746.687 129.594 747.687 125.874 747.717Z" fill="black"/>
<path d="M395.816 225.336C392.712 225.336 389.848 224.616 387.224 223.176C384.632 221.704 382.568 219.672 381.032 217.08C379.528 214.456 378.776 211.512 378.776 208.248C378.776 204.984 379.528 202.056 381.032 199.464C382.568 196.872 384.632 194.856 387.224 193.416C389.848 191.944 392.712 191.208 395.816 191.208C398.952 191.208 401.816 191.944 404.408 193.416C407.032 194.856 409.096 196.872 410.6 199.464C412.104 202.056 412.856 204.984 412.856 208.248C412.856 211.512 412.104 214.456 410.6 217.08C409.096 219.672 407.032 221.704 404.408 223.176C401.816 224.616 398.952 225.336 395.816 225.336ZM395.816 220.584C398.024 220.584 399.992 220.088 401.72 219.096C403.448 218.072 404.792 216.632 405.752 214.776C406.744 212.888 407.24 210.712 407.24 208.248C407.24 205.784 406.744 203.624 405.752 201.768C404.792 199.912 403.448 198.488 401.72 197.496C399.992 196.504 398.024 196.008 395.816 196.008C393.608 196.008 391.64 196.504 389.912 197.496C388.184 198.488 386.824 199.912 385.832 201.768C384.872 203.624 384.392 205.784 384.392 208.248C384.392 210.712 384.872 212.888 385.832 214.776C386.824 216.632 388.184 218.072 389.912 219.096C391.64 220.088 393.608 220.584 395.816 220.584ZM429.713 225.432C427.217 225.432 424.961 224.872 422.945 223.752C420.929 222.6 419.345 221 418.193 218.952C417.041 216.872 416.465 214.472 416.465 211.752C416.465 209.064 417.057 206.68 418.241 204.6C419.425 202.52 421.041 200.92 423.089 199.8C425.137 198.68 427.425 198.12 429.953 198.12C432.481 198.12 434.769 198.68 436.817 199.8C438.865 200.92 440.481 202.52 441.665 204.6C442.849 206.68 443.441 209.064 443.441 211.752C443.441 214.44 442.833 216.824 441.617 218.904C440.401 220.984 438.737 222.6 436.625 223.752C434.545 224.872 432.241 225.432 429.713 225.432ZM429.713 220.68C431.121 220.68 432.433 220.344 433.649 219.672C434.897 219 435.905 217.992 436.673 216.648C437.441 215.304 437.825 213.672 437.825 211.752C437.825 209.832 437.457 208.216 436.721 206.904C435.985 205.56 435.009 204.552 433.793 203.88C432.577 203.208 431.265 202.872 429.857 202.872C428.449 202.872 427.137 203.208 425.921 203.88C424.737 204.552 423.793 205.56 423.089 206.904C422.385 208.216 422.033 209.832 422.033 211.752C422.033 214.6 422.753 216.808 424.193 218.376C425.665 219.912 427.505 220.68 429.713 220.68ZM460.322 225.432C457.826 225.432 455.57 224.872 453.554 223.752C451.538 222.6 449.954 221 448.802 218.952C447.65 216.872 447.074 214.472 447.074 211.752C447.074 209.064 447.666 206.68 448.85 204.6C450.034 202.52 451.65 200.92 453.698 199.8C455.746 198.68 458.034 198.12 460.562 198.12C463.09 198.12 465.378 198.68 467.426 199.8C469.474 200.92 471.09 202.52 472.274 204.6C473.458 206.68 474.05 209.064 474.05 211.752C474.05 214.44 473.442 216.824 472.226 218.904C471.01 220.984 469.346 222.6 467.234 223.752C465.154 224.872 462.85 225.432 460.322 225.432ZM460.322 220.68C461.73 220.68 463.042 220.344 464.258 219.672C465.506 219 466.514 217.992 467.282 216.648C468.05 215.304 468.434 213.672 468.434 211.752C468.434 209.832 468.066 208.216 467.33 206.904C466.594 205.56 465.618 204.552 464.402 203.88C463.186 203.208 461.874 202.872 460.466 202.872C459.058 202.872 457.746 203.208 456.53 203.88C455.346 204.552 454.402 205.56 453.698 206.904C452.994 208.216 452.642 209.832 452.642 211.752C452.642 214.6 453.362 216.808 454.802 218.376C456.274 219.912 458.114 220.68 460.322 220.68ZM484.931 202.44C485.859 201.224 487.123 200.2 488.723 199.368C490.323 198.536 492.131 198.12 494.147 198.12C496.451 198.12 498.547 198.696 500.435 199.848C502.355 200.968 503.859 202.552 504.947 204.6C506.035 206.648 506.579 209 506.579 211.656C506.579 214.312 506.035 216.696 504.947 218.808C503.859 220.888 502.355 222.52 500.435 223.704C498.547 224.856 496.451 225.432 494.147 225.432C492.131 225.432 490.339 225.032 488.771 224.232C487.203 223.4 485.923 222.376 484.931 221.16V237.576H479.459V198.552H484.931V202.44ZM501.011 211.656C501.011 209.832 500.627 208.264 499.859 206.952C499.123 205.608 498.131 204.6 496.883 203.928C495.667 203.224 494.355 202.872 492.947 202.872C491.571 202.872 490.259 203.224 489.011 203.928C487.795 204.632 486.803 205.656 486.035 207C485.299 208.344 484.931 209.928 484.931 211.752C484.931 213.576 485.299 215.176 486.035 216.552C486.803 217.896 487.795 218.92 489.011 219.624C490.259 220.328 491.571 220.68 492.947 220.68C494.355 220.68 495.667 220.328 496.883 219.624C498.131 218.888 499.123 217.832 499.859 216.456C500.627 215.08 501.011 213.48 501.011 211.656ZM521.591 225.432C519.511 225.432 517.639 225.064 515.975 224.328C514.343 223.56 513.047 222.536 512.087 221.256C511.127 219.944 510.615 218.488 510.551 216.888H516.215C516.311 218.008 516.839 218.952 517.799 219.72C518.791 220.456 520.023 220.824 521.495 220.824C523.031 220.824 524.215 220.536 525.047 219.96C525.911 219.352 526.343 218.584 526.343 217.656C526.343 216.664 525.863 215.928 524.903 215.448C523.975 214.968 522.487 214.44 520.439 213.864C518.455 213.32 516.839 212.792 515.591 212.28C514.343 211.768 513.255 210.984 512.327 209.928C511.431 208.872 510.983 207.48 510.983 205.752C510.983 204.344 511.399 203.064 512.231 201.912C513.063 200.728 514.247 199.8 515.783 199.128C517.351 198.456 519.143 198.12 521.159 198.12C524.167 198.12 526.583 198.888 528.407 200.424C530.263 201.928 531.255 203.992 531.383 206.616H525.911C525.815 205.432 525.335 204.488 524.471 203.784C523.607 203.08 522.439 202.728 520.967 202.728C519.527 202.728 518.423 203 517.655 203.544C516.887 204.088 516.503 204.808 516.503 205.704C516.503 206.408 516.759 207 517.271 207.48C517.783 207.96 518.407 208.344 519.143 208.632C519.879 208.888 520.967 209.224 522.407 209.64C524.327 210.152 525.895 210.68 527.111 211.224C528.359 211.736 529.431 212.504 530.327 213.528C531.223 214.552 531.687 215.912 531.719 217.608C531.719 219.112 531.303 220.456 530.471 221.64C529.639 222.824 528.455 223.752 526.919 224.424C525.415 225.096 523.639 225.432 521.591 225.432ZM544.495 191.64L543.871 214.92H539.311L538.687 191.64H544.495ZM541.759 225.336C540.767 225.336 539.935 225 539.263 224.328C538.591 223.656 538.255 222.824 538.255 221.832C538.255 220.84 538.591 220.008 539.263 219.336C539.935 218.664 540.767 218.328 541.759 218.328C542.719 218.328 543.535 218.664 544.207 219.336C544.879 220.008 545.215 220.84 545.215 221.832C545.215 222.824 544.879 223.656 544.207 224.328C543.535 225 542.719 225.336 541.759 225.336ZM378.776 283.752C378.776 281.032 379.32 278.648 380.408 276.6C381.528 274.52 383.064 272.92 385.016 271.8C386.968 270.68 389.208 270.12 391.736 270.12C394.936 270.12 397.576 270.888 399.656 272.424C401.768 273.928 403.192 276.088 403.928 278.904H398.024C397.544 277.592 396.776 276.568 395.72 275.832C394.664 275.096 393.336 274.728 391.736 274.728C389.496 274.728 387.704 275.528 386.36 277.128C385.048 278.696 384.392 280.904 384.392 283.752C384.392 286.6 385.048 288.824 386.36 290.424C387.704 292.024 389.496 292.824 391.736 292.824C394.904 292.824 397 291.432 398.024 288.648H403.928C403.16 291.336 401.72 293.48 399.608 295.08C397.496 296.648 394.872 297.432 391.736 297.432C389.208 297.432 386.968 296.872 385.016 295.752C383.064 294.6 381.528 293 380.408 290.952C379.32 288.872 378.776 286.472 378.776 283.752ZM420.853 297.432C418.357 297.432 416.101 296.872 414.085 295.752C412.069 294.6 410.485 293 409.333 290.952C408.181 288.872 407.605 286.472 407.605 283.752C407.605 281.064 408.197 278.68 409.381 276.6C410.565 274.52 412.181 272.92 414.229 271.8C416.277 270.68 418.565 270.12 421.093 270.12C423.621 270.12 425.909 270.68 427.957 271.8C430.005 272.92 431.621 274.52 432.805 276.6C433.989 278.68 434.581 281.064 434.581 283.752C434.581 286.44 433.973 288.824 432.757 290.904C431.541 292.984 429.877 294.6 427.765 295.752C425.685 296.872 423.381 297.432 420.853 297.432ZM420.853 292.68C422.261 292.68 423.573 292.344 424.789 291.672C426.037 291 427.045 289.992 427.813 288.648C428.581 287.304 428.965 285.672 428.965 283.752C428.965 281.832 428.597 280.216 427.861 278.904C427.125 277.56 426.149 276.552 424.933 275.88C423.717 275.208 422.405 274.872 420.997 274.872C419.589 274.872 418.277 275.208 417.061 275.88C415.877 276.552 414.933 277.56 414.229 278.904C413.525 280.216 413.173 281.832 413.173 283.752C413.173 286.6 413.893 288.808 415.333 290.376C416.805 291.912 418.645 292.68 420.853 292.68ZM463.943 270.552V297H458.471V293.88C457.607 294.968 456.471 295.832 455.063 296.472C453.687 297.08 452.215 297.384 450.647 297.384C448.567 297.384 446.695 296.952 445.031 296.088C443.399 295.224 442.103 293.944 441.143 292.248C440.215 290.552 439.751 288.504 439.751 286.104V270.552H445.175V285.288C445.175 287.656 445.767 289.48 446.951 290.76C448.135 292.008 449.751 292.632 451.799 292.632C453.847 292.632 455.463 292.008 456.647 290.76C457.863 289.48 458.471 287.656 458.471 285.288V270.552H463.943ZM476.635 261.48V297H471.163V261.48H476.635ZM481.995 283.656C481.995 281 482.539 278.648 483.627 276.6C484.747 274.552 486.251 272.968 488.139 271.848C490.059 270.696 492.187 270.12 494.523 270.12C496.251 270.12 497.947 270.504 499.611 271.272C501.307 272.008 502.651 273 503.643 274.248V261.48H509.163V297H503.643V293.016C502.747 294.296 501.499 295.352 499.899 296.184C498.331 297.016 496.523 297.432 494.475 297.432C492.171 297.432 490.059 296.856 488.139 295.704C486.251 294.52 484.747 292.888 483.627 290.808C482.539 288.696 481.995 286.312 481.995 283.656ZM503.643 283.752C503.643 281.928 503.259 280.344 502.491 279C501.755 277.656 500.779 276.632 499.563 275.928C498.347 275.224 497.035 274.872 495.627 274.872C494.219 274.872 492.907 275.224 491.691 275.928C490.475 276.6 489.483 277.608 488.715 278.952C487.979 280.264 487.611 281.832 487.611 283.656C487.611 285.48 487.979 287.08 488.715 288.456C489.483 289.832 490.475 290.888 491.691 291.624C492.939 292.328 494.251 292.68 495.627 292.68C497.035 292.68 498.347 292.328 499.563 291.624C500.779 290.92 501.755 289.896 502.491 288.552C503.259 287.176 503.643 285.576 503.643 283.752ZM529.694 270.12C531.774 270.12 533.63 270.552 535.262 271.416C536.926 272.28 538.222 273.56 539.15 275.256C540.078 276.952 540.542 279 540.542 281.4V297H535.118V282.216C535.118 279.848 534.526 278.04 533.342 276.792C532.158 275.512 530.542 274.872 528.494 274.872C526.446 274.872 524.814 275.512 523.598 276.792C522.414 278.04 521.822 279.848 521.822 282.216V297H516.35V270.552H521.822V273.576C522.718 272.488 523.854 271.64 525.23 271.032C526.638 270.424 528.126 270.12 529.694 270.12ZM548.386 263.64H554.338L549.298 275.064H545.458L548.386 263.64ZM565.531 275.016V289.656C565.531 290.648 565.755 291.368 566.203 291.816C566.683 292.232 567.483 292.44 568.603 292.44H571.963V297H567.643C565.179 297 563.291 296.424 561.979 295.272C560.667 294.12 560.011 292.248 560.011 289.656V275.016H556.891V270.552H560.011V263.976H565.531V270.552H571.963V275.016H565.531ZM594.947 261.48V297H589.475V261.48H594.947ZM613.603 297.432C611.107 297.432 608.851 296.872 606.835 295.752C604.819 294.6 603.235 293 602.083 290.952C600.931 288.872 600.355 286.472 600.355 283.752C600.355 281.064 600.947 278.68 602.131 276.6C603.315 274.52 604.931 272.92 606.979 271.8C609.027 270.68 611.315 270.12 613.843 270.12C616.371 270.12 618.659 270.68 620.707 271.8C622.755 272.92 624.371 274.52 625.555 276.6C626.739 278.68 627.331 281.064 627.331 283.752C627.331 286.44 626.723 288.824 625.507 290.904C624.291 292.984 622.627 294.6 620.515 295.752C618.435 296.872 616.131 297.432 613.603 297.432ZM613.603 292.68C615.011 292.68 616.323 292.344 617.539 291.672C618.787 291 619.795 289.992 620.563 288.648C621.331 287.304 621.715 285.672 621.715 283.752C621.715 281.832 621.347 280.216 620.611 278.904C619.875 277.56 618.899 276.552 617.683 275.88C616.467 275.208 615.155 274.872 613.747 274.872C612.339 274.872 611.027 275.208 609.811 275.88C608.627 276.552 607.683 277.56 606.979 278.904C606.275 280.216 605.923 281.832 605.923 283.752C605.923 286.6 606.643 288.808 608.083 290.376C609.555 291.912 611.395 292.68 613.603 292.68ZM630.917 283.656C630.917 281 631.461 278.648 632.549 276.6C633.669 274.552 635.173 272.968 637.061 271.848C638.981 270.696 641.093 270.12 643.397 270.12C645.477 270.12 647.285 270.536 648.821 271.368C650.389 272.168 651.637 273.176 652.565 274.392V270.552H658.085V297H652.565V293.064C651.637 294.312 650.373 295.352 648.773 296.184C647.173 297.016 645.349 297.432 643.301 297.432C641.029 297.432 638.949 296.856 637.061 295.704C635.173 294.52 633.669 292.888 632.549 290.808C631.461 288.696 630.917 286.312 630.917 283.656ZM652.565 283.752C652.565 281.928 652.181 280.344 651.413 279C650.677 277.656 649.701 276.632 648.485 275.928C647.269 275.224 645.957 274.872 644.549 274.872C643.141 274.872 641.829 275.224 640.613 275.928C639.397 276.6 638.405 277.608 637.637 278.952C636.901 280.264 636.533 281.832 636.533 283.656C636.533 285.48 636.901 287.08 637.637 288.456C638.405 289.832 639.397 290.888 640.613 291.624C641.861 292.328 643.173 292.68 644.549 292.68C645.957 292.68 647.269 292.328 648.485 291.624C649.701 290.92 650.677 289.896 651.413 288.552C652.181 287.176 652.565 285.576 652.565 283.752ZM663.448 283.656C663.448 281 663.992 278.648 665.08 276.6C666.2 274.552 667.704 272.968 669.592 271.848C671.512 270.696 673.64 270.12 675.976 270.12C677.704 270.12 679.4 270.504 681.064 271.272C682.76 272.008 684.104 273 685.096 274.248V261.48H690.616V297H685.096V293.016C684.2 294.296 682.952 295.352 681.352 296.184C679.784 297.016 677.976 297.432 675.928 297.432C673.624 297.432 671.512 296.856 669.592 295.704C667.704 294.52 666.2 292.888 665.08 290.808C663.992 288.696 663.448 286.312 663.448 283.656ZM685.096 283.752C685.096 281.928 684.712 280.344 683.944 279C683.208 277.656 682.232 276.632 681.016 275.928C679.8 275.224 678.488 274.872 677.08 274.872C675.672 274.872 674.36 275.224 673.144 275.928C671.928 276.6 670.936 277.608 670.168 278.952C669.432 280.264 669.064 281.832 669.064 283.656C669.064 285.48 669.432 287.08 670.168 288.456C670.936 289.832 671.928 290.888 673.144 291.624C674.392 292.328 675.704 292.68 677.08 292.68C678.488 292.68 679.8 292.328 681.016 291.624C682.232 290.92 683.208 289.896 683.944 288.552C684.712 287.176 685.096 285.576 685.096 283.752ZM708.448 283.752C708.448 281.032 708.992 278.648 710.08 276.6C711.2 274.52 712.736 272.92 714.688 271.8C716.64 270.68 718.88 270.12 721.408 270.12C724.608 270.12 727.248 270.888 729.328 272.424C731.44 273.928 732.864 276.088 733.6 278.904H727.696C727.216 277.592 726.448 276.568 725.392 275.832C724.336 275.096 723.008 274.728 721.408 274.728C719.168 274.728 717.376 275.528 716.032 277.128C714.72 278.696 714.064 280.904 714.064 283.752C714.064 286.6 714.72 288.824 716.032 290.424C717.376 292.024 719.168 292.824 721.408 292.824C724.576 292.824 726.672 291.432 727.696 288.648H733.6C732.832 291.336 731.392 293.48 729.28 295.08C727.168 296.648 724.544 297.432 721.408 297.432C718.88 297.432 716.64 296.872 714.688 295.752C712.736 294.6 711.2 293 710.08 290.952C708.992 288.872 708.448 286.472 708.448 283.752ZM750.525 297.432C748.029 297.432 745.773 296.872 743.757 295.752C741.741 294.6 740.157 293 739.005 290.952C737.853 288.872 737.277 286.472 737.277 283.752C737.277 281.064 737.869 278.68 739.053 276.6C740.237 274.52 741.853 272.92 743.901 271.8C745.949 270.68 748.237 270.12 750.765 270.12C753.293 270.12 755.581 270.68 757.629 271.8C759.677 272.92 761.293 274.52 762.477 276.6C763.661 278.68 764.253 281.064 764.253 283.752C764.253 286.44 763.645 288.824 762.429 290.904C761.213 292.984 759.549 294.6 757.437 295.752C755.357 296.872 753.053 297.432 750.525 297.432ZM750.525 292.68C751.933 292.68 753.245 292.344 754.461 291.672C755.709 291 756.717 289.992 757.485 288.648C758.253 287.304 758.637 285.672 758.637 283.752C758.637 281.832 758.269 280.216 757.533 278.904C756.797 277.56 755.821 276.552 754.605 275.88C753.389 275.208 752.077 274.872 750.669 274.872C749.261 274.872 747.949 275.208 746.733 275.88C745.549 276.552 744.605 277.56 743.901 278.904C743.197 280.216 742.845 281.832 742.845 283.752C742.845 286.6 743.565 288.808 745.005 290.376C746.477 291.912 748.317 292.68 750.525 292.68ZM779.887 292.104L787.375 270.552H793.182L783.103 297H776.575L766.543 270.552H772.398L779.887 292.104ZM821.559 283.128C821.559 284.12 821.495 285.016 821.367 285.816H801.159C801.319 287.928 802.103 289.624 803.511 290.904C804.919 292.184 806.647 292.824 808.695 292.824C811.639 292.824 813.719 291.592 814.935 289.128H820.839C820.039 291.56 818.583 293.56 816.471 295.128C814.391 296.664 811.799 297.432 808.695 297.432C806.167 297.432 803.895 296.872 801.879 295.752C799.895 294.6 798.327 293 797.175 290.952C796.055 288.872 795.495 286.472 795.495 283.752C795.495 281.032 796.039 278.648 797.127 276.6C798.247 274.52 799.799 272.92 801.783 271.8C803.799 270.68 806.103 270.12 808.695 270.12C811.191 270.12 813.415 270.664 815.367 271.752C817.319 272.84 818.839 274.376 819.927 276.36C821.015 278.312 821.559 280.568 821.559 283.128ZM815.847 281.4C815.815 279.384 815.095 277.768 813.687 276.552C812.279 275.336 810.535 274.728 808.455 274.728C806.567 274.728 804.951 275.336 803.607 276.552C802.263 277.736 801.463 279.352 801.207 281.4H815.847ZM832.416 274.392C833.216 273.048 834.272 272.008 835.584 271.272C836.928 270.504 838.512 270.12 840.336 270.12V275.784H838.944C836.8 275.784 835.168 276.328 834.048 277.416C832.96 278.504 832.416 280.392 832.416 283.08V297H826.944V270.552H832.416V274.392ZM860.042 297.336C859.05 297.336 858.218 297 857.546 296.328C856.874 295.656 856.538 294.824 856.538 293.832C856.538 292.84 856.874 292.008 857.546 291.336C858.218 290.664 859.05 290.328 860.042 290.328C861.002 290.328 861.818 290.664 862.49 291.336C863.162 292.008 863.498 292.84 863.498 293.832C863.498 294.824 863.162 295.656 862.49 296.328C861.818 297 861.002 297.336 860.042 297.336ZM860.042 277.176C859.05 277.176 858.218 276.84 857.546 276.168C856.874 275.496 856.538 274.664 856.538 273.672C856.538 272.68 856.874 271.848 857.546 271.176C858.218 270.504 859.05 270.168 860.042 270.168C861.002 270.168 861.818 270.504 862.49 271.176C863.162 271.848 863.498 272.68 863.498 273.672C863.498 274.664 863.162 275.496 862.49 276.168C861.818 276.84 861.002 277.176 860.042 277.176ZM881.696 305.928C878.56 302.92 876.144 299.096 874.448 294.456C872.784 289.816 871.952 284.84 871.952 279.528C871.952 274.088 872.848 268.952 874.64 264.12C876.464 259.288 879.136 255.304 882.656 252.168H888.32V252.696C884.64 256.088 881.872 260.152 880.016 264.888C878.16 269.624 877.232 274.504 877.232 279.528C877.232 284.36 878.096 289.032 879.824 293.544C881.552 298.056 884.064 302.008 887.36 305.4V305.928H881.696Z" fill="black"/>
<defs>
<linearGradient id="paint0_linear" x1="222.994" y1="433.417" x2="535.124" y2="433.417" gradientUnits="userSpaceOnUse">
<stop stop-color="#808080" stop-opacity="0.25"/>
<stop offset="0.54" stop-color="#808080" stop-opacity="0.12"/>
<stop offset="1" stop-color="#808080" stop-opacity="0.1"/>
</linearGradient>
</defs>
</svg>
